<svg width="" height="" viewBox="0 0 24 24" fill="" xmlns="http://www.w3.org/2000/svg">
<path fill-rule="evenodd" clip-rule="evenodd" d="M5.4375 8.56249C5.4375 8.1828 5.7453 7.875 6.12499 7.875H18.4999C18.8796 7.875 19.1874 8.1828 19.1874 8.56249V20.9374C19.1874 22.0764 18.264 22.9999 17.1249 22.9999H7.49998C6.3609 22.9999 5.4375 22.0764 5.4375 20.9374V8.56249ZM6.81249 9.24999V20.9374C6.81249 21.3171 7.12029 21.6249 7.49998 21.6249H17.1249C17.5046 21.6249 17.8124 21.3171 17.8124 20.9374V9.24999H6.81249Z" fill=""/>
<path fill-rule="evenodd" clip-rule="evenodd" d="M10.25 12C10.6297 12 10.9375 12.3078 10.9375 12.6875V18.1874C10.9375 18.5671 10.6297 18.8749 10.25 18.8749C9.8703 18.8749 9.5625 18.5671 9.5625 18.1874V12.6875C9.5625 12.3078 9.8703 12 10.25 12Z" fill=""/>
<path fill-rule="evenodd" clip-rule="evenodd" d="M14.375 12C14.7547 12 15.0625 12.3078 15.0625 12.6875V18.1874C15.0625 18.5671 14.7547 18.8749 14.375 18.8749C13.9953 18.8749 13.6875 18.5671 13.6875 18.1874V12.6875C13.6875 12.3078 13.9953 12 14.375 12Z" fill=""/>
<path fill-rule="evenodd" clip-rule="evenodd" d="M20.8444 2.83523C20.9234 3.20663 20.6863 3.5717 20.3149 3.65063L2.83056 7.36677C2.45917 7.4457 2.0941 7.20862 2.01516 6.83722C1.93623 6.46582 2.17331 6.10076 2.54471 6.02182L20.029 2.30569C20.4004 2.22675 20.7655 2.46384 20.8444 2.83523Z" fill=""/>
<path fill-rule="evenodd" clip-rule="evenodd" d="M15.1793 2.63245C15.1794 2.63283 15.1794 2.63321 15.1795 2.63359L15.4688 3.97666C15.5073 4.15522 15.4731 4.34173 15.3739 4.49506C15.2746 4.64838 15.1184 4.7559 14.9397 4.79389L8.21514 6.22388C7.84452 6.30269 7.48 6.06677 7.40011 5.69638L7.11025 4.35258C6.99539 3.81662 7.0986 3.25698 7.39709 2.79725C7.69548 2.33767 8.16448 2.01573 8.70058 1.90246C8.70041 1.9025 8.70076 1.90242 8.70058 1.90246L12.7334 1.04548C12.7334 1.04549 12.7334 1.04548 12.7334 1.04548C13.847 0.808808 14.9417 1.51919 15.1793 2.63245ZM13.8346 2.9198C13.7556 2.54849 13.3906 2.3115 13.0193 2.39043L8.985 3.24771C8.80622 3.28543 8.64982 3.39277 8.55032 3.54601C8.4509 3.69915 8.41647 3.88555 8.45463 4.06409C8.45461 4.06397 8.45466 4.06421 8.45463 4.06409L8.59965 4.73638L13.9795 3.59235L13.835 2.92146L13.8346 2.9198Z" fill=""/>
</svg>
