<svg width="" height="" viewBox="0 0 24 24" fill="" xmlns="http://www.w3.org/2000/svg">
<path fill-rule="evenodd" clip-rule="evenodd" d="M20.3647 4.6352C19.8707 4.14127 19.0699 4.14127 18.5759 4.6352L10.6756 12.535L10.3777 14.6222L12.4643 14.3237L20.3647 6.42384C20.8587 5.92992 20.8587 5.12912 20.3647 4.6352ZM17.6816 3.74088C18.6695 2.75304 20.2712 2.75304 21.2591 3.74088C22.247 4.72872 22.247 6.33032 21.2591 7.31816L13.2097 15.3671C13.1129 15.4638 12.9874 15.5265 12.852 15.5459L9.72198 15.9936C9.52492 16.0218 9.32609 15.9556 9.1853 15.8148C9.04452 15.6741 8.97822 15.4753 9.00635 15.2783L9.45326 12.1476C9.4726 12.0121 9.53537 11.8865 9.63215 11.7898L17.6816 3.74088Z" fill=""/>
<path fill-rule="evenodd" clip-rule="evenodd" d="M17.1877 4.18767C17.4379 3.93744 17.8436 3.93744 18.0938 4.18767L20.8123 6.90617C21.0626 7.1564 21.0626 7.5621 20.8123 7.81233C20.5621 8.06256 20.1564 8.06256 19.9062 7.81233L17.1877 5.09383C16.9374 4.8436 16.9374 4.4379 17.1877 4.18767Z" fill=""/>
<path fill-rule="evenodd" clip-rule="evenodd" d="M4.96154 6.30769C4.60043 6.30769 4.30769 6.60043 4.30769 6.96154V20.0385C4.30769 20.3996 4.60043 20.6923 4.96154 20.6923H18.0385C18.3996 20.6923 18.6923 20.3996 18.6923 20.0385V13.5C18.6923 13.1389 18.985 12.8462 19.3462 12.8462C19.7073 12.8462 20 13.1389 20 13.5V20.0385C20 21.1218 19.1218 22 18.0385 22H4.96154C3.87821 22 3 21.1218 3 20.0385V6.96154C3 5.87821 3.87821 5 4.96154 5H11.5C11.8611 5 12.1538 5.29274 12.1538 5.65385C12.1538 6.01496 11.8611 6.30769 11.5 6.30769H4.96154Z" fill=""/>
</svg>
